<svg width="107" height="21" viewBox="0 0 107 21" fill="none" xmlns="http://www.w3.org/2000/svg">
<rect width="107" height="21" fill="#F1F1F1"/>
<g id="Partners Desktop " clip-path="url(#clip0_0_1)">
<rect width="1600" height="6142" transform="translate(-1124 -3022)" fill="#FFFEFC"/>
<g id="Partners 3 ways ">
<g id="Partner with us ">
<path id="Vector 5" d="M1.13883 18.8084C18.6593 11.7259 55.4004 -1.6461 106.447 3.4847" stroke="#FF942A" stroke-width="3"/>
<path id="in 3 ways" d="M-127.353 18.3734C-127.765 18.0549 -128.097 17.6335 -128.349 17.1092C-128.556 16.5791 -128.671 16.0373 -128.696 15.484C-128.72 14.9306 -128.664 14.4597 -128.528 14.0714C-128.574 13.7064 -128.564 13.4268 -128.496 13.2326C-128.388 12.987 -128.368 12.7758 -128.437 12.5991C-128.506 12.4224 -128.501 12.0972 -128.423 11.6234C-128.344 11.1497 -128.262 10.6987 -128.178 10.2706C-127.951 9.49978 -127.72 8.58917 -127.483 7.53875C-127.251 6.4427 -127.04 5.37238 -126.849 4.32778C-126.657 3.28318 -126.494 2.38129 -126.359 1.62211C-126.224 0.862931 -126.145 0.389171 -126.123 0.200831C-126.193 -0.346736 -125.865 -0.689879 -125.141 -0.828599C-124.617 -1.08094 -124.206 -1.1333 -123.909 -0.985685C-123.618 -0.883701 -123.198 -0.496755 -122.648 0.175155C-122.237 0.493656 -122.03 1.02377 -122.028 1.7655C-122.026 2.50722 -122.207 3.45765 -122.569 4.61678C-122.705 5.0051 -122.866 5.55894 -123.053 6.27831C-123.193 6.99186 -123.275 7.62823 -123.296 8.18744C-123.432 8.57575 -123.593 9.12959 -123.78 9.84896C-123.926 10.5169 -124.053 11.1591 -124.16 11.7755C-124.222 12.0153 -124.27 12.3692 -124.303 12.8371C-124.342 13.2595 -124.398 13.7303 -124.471 14.2497C-124.549 14.7235 -124.68 15.1574 -124.861 15.5515C-125.033 17.4748 -125.282 18.6193 -125.606 18.9853C-125.885 19.3454 -126.467 19.1415 -127.353 18.3734ZM-124.257 -10.2622C-124.514 -10.4612 -124.761 -10.7545 -124.995 -11.1419C-125.236 -11.5749 -125.403 -11.971 -125.495 -12.3302C-125.593 -12.7351 -125.573 -12.9463 -125.436 -12.9637C-125.077 -13.0559 -124.693 -13.499 -124.284 -14.2931C-123.875 -15.0872 -123.752 -15.7522 -123.913 -16.2881C-123.936 -16.4707 -123.888 -16.6391 -123.768 -16.7934C-123.655 -16.9934 -123.51 -17.1279 -123.333 -17.1968C-122.832 -17.6316 -122.313 -17.7442 -121.776 -17.5344C-121.199 -17.376 -120.636 -16.9609 -120.087 -16.289C-119.566 -15.4744 -119.359 -14.7588 -119.466 -14.1424C-119.578 -13.5715 -119.981 -12.7318 -120.675 -11.6232C-121.243 -10.6233 -121.818 -10.0399 -122.399 -9.87305C-122.935 -9.71197 -123.554 -9.84167 -124.257 -10.2622ZM-91.2318 12.794C-92.1444 12.9104 -92.9206 12.8238 -93.5603 12.5344C-94.2059 12.1994 -94.7922 11.6017 -95.3192 10.7415C-95.5832 10.1259 -95.8331 9.43902 -96.0689 8.68075C-96.2649 7.87104 -96.4065 7.12395 -96.4938 6.43949C-96.5869 5.7094 -96.5795 5.22155 -96.4717 4.97595C-96.3125 4.77015 -96.2847 4.44201 -96.3885 3.99152C-96.4525 3.48959 -96.5194 2.96484 -96.5893 2.41727C-96.7513 1.51047 -97.0434 1.03763 -97.4657 0.998729C-97.8482 0.908381 -98.3783 1.11509 -99.0561 1.61885C-99.8134 2.22551 -100.798 3.04669 -102.011 4.0824C-103.23 5.07247 -104.505 6.16253 -105.837 7.35258C-107.124 8.53681 -108.336 9.75795 -109.474 11.016C-110.338 12.2391 -110.847 13.1618 -110.999 13.7841C-111.112 14.355 -111.351 14.6636 -111.716 14.7102C-112.058 14.9393 -112.374 15.0028 -112.665 14.9008C-112.917 14.7474 -113.294 14.5172 -113.797 14.2104C-114.163 13.886 -114.526 13.5845 -114.886 13.3059C-115.252 12.9815 -115.492 12.7339 -115.607 12.563C-115.636 12.3349 -115.628 11.847 -115.585 11.0995C-115.541 10.352 -115.474 9.60151 -115.385 8.84815C-115.25 8.08897 -115.151 7.58948 -115.089 7.34969C-114.861 7.3206 -114.707 7.06918 -114.629 6.59542C-114.504 6.11584 -114.295 5.57899 -113.999 4.98488C-113.978 4.42568 -113.843 3.6665 -113.594 2.70734C-113.306 1.69674 -113.048 0.80603 -112.822 0.0352139C-112.323 -1.14137 -112.006 -2.10925 -111.871 -2.86843C-111.69 -3.63343 -111.624 -4.56932 -111.672 -5.67609C-111.741 -5.85279 -111.716 -6.01831 -111.596 -6.17266C-111.483 -6.37264 -111.335 -6.48426 -111.152 -6.50753C-110.834 -6.91912 -110.412 -7.06566 -109.886 -6.94713C-109.367 -6.87424 -108.867 -6.59019 -108.387 -6.09498C-107.426 -5.10457 -106.961 -4.00453 -106.992 -2.79487C-106.983 -1.63665 -107.504 0.0991428 -108.554 2.4125C-108.78 3.18332 -108.959 3.7857 -109.089 4.21965C-109.179 4.60215 -109.21 4.90747 -109.181 5.13562C-109.181 5.13562 -108.973 4.94683 -108.557 4.56923C-108.096 4.18582 -107.595 3.75096 -107.054 3.26465C-106.473 2.72689 -106.015 2.32067 -105.679 2.04597C-105.48 1.78873 -105.008 1.31114 -104.262 0.613223C-103.516 -0.0846997 -102.722 -0.765624 -101.879 -1.42955C-100.997 -2.14493 -100.333 -2.57734 -99.8884 -2.72678C-99.5466 -2.95584 -99.1791 -3.165 -98.7859 -3.35426C-98.3985 -3.58914 -98.1135 -3.71822 -97.931 -3.74149C-97.5659 -3.78803 -97.0835 -3.64088 -96.4835 -3.30002C-95.8438 -3.01061 -95.238 -2.62412 -94.6663 -2.14055C-94.1003 -1.70261 -93.7485 -1.30694 -93.6107 -0.953528C-93.5874 -0.771006 -93.5641 -0.588483 -93.5409 -0.405961C-93.472 -0.229256 -93.4031 -0.0525521 -93.3342 0.124153C-93.076 0.694078 -92.8829 1.48098 -92.7549 2.48485C-92.5813 3.48291 -92.4878 4.39843 -92.4743 5.23141C-92.4608 6.0644 -92.5594 6.56388 -92.7701 6.72987C-92.7701 6.72987 -92.7614 6.79831 -92.744 6.9352C-92.6867 7.02065 -92.5668 7.05173 -92.3843 7.02846C-92.361 7.21098 -92.3465 7.32506 -92.3406 7.37069C-92.5688 7.39978 -92.6339 7.61675 -92.5359 8.02161C-92.4437 8.38084 -92.2545 8.77406 -91.9681 9.20127C-91.6362 9.62267 -91.3158 9.95281 -91.0071 10.1917C-90.3898 10.6694 -90.0947 11.1651 -90.122 11.6787C-90.155 12.1466 -90.525 12.5184 -91.2318 12.794ZM-58.0213 10.6463C-59.1621 10.7918 -60.2946 10.8203 -61.4188 10.7317C-62.5032 10.5918 -63.391 10.3572 -64.0822 10.028C-64.7792 9.6531 -65.1398 9.18898 -65.164 8.63559C-65.2115 7.89969 -65.1012 7.49146 -64.8332 7.41092C-64.5711 7.28476 -63.9294 7.22612 -62.908 7.23501C-61.3159 7.35662 -59.6474 7.16707 -57.9027 6.66639C-56.1581 6.1657 -54.5536 5.47423 -53.0895 4.59195C-51.6253 3.70968 -50.515 2.77979 -49.7586 1.80226C-48.6778 0.458781 -48.2815 -0.79743 -48.5697 -1.96637C-48.8122 -3.14113 -49.6504 -4.07764 -51.0842 -4.7759C-51.7298 -5.11094 -52.6006 -5.39408 -53.6966 -5.62531C-54.7927 -5.85654 -55.8771 -5.99651 -56.9498 -6.04522C-57.9828 -6.14537 -58.8158 -6.13191 -59.4488 -6.00483C-59.8537 -5.90683 -60.1959 -5.8632 -60.4755 -5.87392C-60.7095 -5.89046 -61.1434 -6.02062 -61.7773 -6.2644C-62.0918 -6.54891 -62.3864 -6.85914 -62.6611 -7.1951C-62.9417 -7.57668 -63.1392 -7.85292 -63.2537 -8.0238C-63.3284 -8.24614 -63.2434 -8.48884 -62.9988 -8.7519C-62.7084 -9.02078 -62.0962 -9.493 -61.1622 -10.1686C-60.2339 -10.8898 -58.793 -11.9545 -56.8395 -13.3629C-55.0568 -14.6568 -53.6586 -15.693 -52.645 -16.4714C-51.5915 -17.3013 -50.7715 -17.9623 -50.185 -18.4545C-49.5587 -18.998 -49.0635 -19.4785 -48.6994 -19.8959C-48.0177 -21.0958 -47.6972 -21.8554 -47.7379 -22.1749C-47.7786 -22.4943 -48.4067 -22.6924 -49.6222 -22.7693C-50.7746 -22.7151 -51.8785 -22.6439 -52.9338 -22.5557C-53.9891 -22.4676 -54.5052 -22.3322 -54.4819 -22.1497C-54.4819 -22.1497 -54.5047 -22.1468 -54.5503 -22.141C-54.5503 -22.141 -54.6188 -22.1322 -54.7557 -22.1148C-54.9955 -22.177 -55.4945 -22.0901 -56.2528 -21.8543C-57.011 -21.6185 -57.7436 -21.3628 -58.4504 -21.0872C-59.1116 -20.8174 -59.4562 -20.6112 -59.4844 -20.4685C-59.5184 -20.3714 -59.7718 -20.1768 -60.2447 -19.8846C-60.6777 -19.6439 -61.1365 -19.4231 -61.621 -19.2222C-62.0598 -19.0272 -62.3477 -18.9209 -62.4846 -18.9035C-62.7244 -18.9656 -63.0272 -19.1589 -63.3932 -19.4832C-63.7193 -19.859 -63.9999 -20.2405 -64.2347 -20.6279C-64.4754 -21.061 -64.5647 -21.3974 -64.5025 -21.6372C-64.4345 -21.8313 -64.1899 -22.0944 -63.7685 -22.4264C-63.3072 -22.8098 -62.7776 -23.2019 -62.1795 -23.6028C-61.5872 -24.0493 -61.0546 -24.4186 -60.5818 -24.7108C-59.9662 -24.9747 -59.0939 -25.2251 -57.9648 -25.4618C-56.79 -25.7043 -55.6094 -25.9012 -54.423 -26.0525C-53.2425 -26.2494 -52.3755 -26.3599 -51.8221 -26.3841C-49.694 -26.4236 -48.0043 -26.0825 -46.753 -25.361C-45.5017 -24.6395 -44.646 -23.5661 -44.1861 -22.1408C-43.9677 -21.5194 -43.8552 -21.0005 -43.8485 -20.584C-43.8417 -20.1675 -43.9918 -19.7078 -44.2987 -19.205C-44.6113 -18.7478 -45.1716 -18.0503 -45.9795 -17.1126C-47.0272 -16.2371 -47.8841 -15.5018 -48.5502 -14.9068C-49.2163 -14.3117 -50.2299 -13.5333 -51.5912 -12.5714C-51.8815 -12.3025 -52.2772 -11.9506 -52.7782 -11.5158C-53.2793 -11.0809 -53.7376 -10.6747 -54.1531 -10.2971C-54.5745 -9.96512 -54.7794 -9.75351 -54.7678 -9.66225C-54.7678 -9.66225 -54.6678 -9.60544 -54.4678 -9.49182C-54.2737 -9.42383 -54.0281 -9.31602 -53.731 -9.16841C-53.4339 -9.0208 -53.1568 -8.84746 -52.8996 -8.64839C-51.5181 -8.36081 -50.2158 -7.7849 -48.9927 -6.92066C-47.7695 -6.05642 -46.8891 -5.33397 -46.3513 -4.75332C-45.5321 -3.42023 -45.1066 -2.08331 -45.0748 -0.742566C-44.9973 0.592358 -45.2937 1.90538 -45.9637 3.1965C-46.6396 4.44199 -47.715 5.64567 -49.1899 6.80754C-50.3745 7.70053 -51.7789 8.50563 -53.4033 9.22283C-55.0334 9.89441 -56.5728 10.3689 -58.0213 10.6463ZM-15.4011 3.19497C-16.0855 3.28224 -16.7767 2.95302 -17.4746 2.2073C-18.1328 1.41014 -18.6831 0.367366 -19.1256 -0.921013C-19.5283 -2.26084 -19.7771 -3.66666 -19.872 -5.13848C-20.0582 -6.59866 -20.1381 -7.77096 -20.1117 -8.6554C-20.0456 -9.59128 -19.9765 -10.5044 -19.9045 -11.3946C-19.8025 -11.6858 -19.7632 -11.9227 -19.7864 -12.1052C-19.7641 -12.2936 -19.7563 -12.596 -19.763 -13.0125C-19.7241 -13.4348 -19.6517 -14.1396 -19.5457 -15.127C-19.4621 -15.926 -19.361 -16.5881 -19.2425 -17.1133C-19.124 -17.6385 -18.9851 -18.004 -18.8258 -18.2098C-18.6326 -18.5126 -18.3563 -18.7102 -17.9971 -18.8023C-17.6437 -18.9401 -17.2757 -18.9639 -16.8932 -18.8735C-16.5107 -18.7832 -16.1821 -18.57 -15.9075 -18.2341C-15.6046 -18.0408 -15.4008 -17.5335 -15.2961 -16.7122C-15.1515 -15.9423 -15.0924 -15.1151 -15.1188 -14.2307C-15.1509 -13.3919 -15.2806 -12.7725 -15.5079 -12.3725C-15.5701 -12.1327 -15.6085 -11.525 -15.6232 -10.5493C-15.5923 -9.57943 -15.5784 -8.56101 -15.5815 -7.49405C-15.5389 -6.43291 -15.5453 -5.5742 -15.6008 -4.91792C-15.633 -4.07911 -15.4801 -3.4262 -15.1424 -2.95917C-14.759 -2.49796 -14.1857 -2.54787 -13.4225 -3.1089C-12.6195 -3.72138 -11.6416 -5.14448 -10.4889 -7.37822C-9.70521 -8.86931 -9.11766 -10.0804 -8.72626 -11.0113C-8.33487 -11.9423 -8.04882 -12.7903 -7.86813 -13.5553C-7.64762 -14.3717 -7.43293 -15.2338 -7.22406 -16.1415C-7.08899 -16.9007 -6.95929 -17.5201 -6.83495 -17.9997C-6.67079 -18.5307 -6.50618 -18.8763 -6.34111 -19.0364C-6.05079 -19.3053 -5.69738 -19.4431 -5.28089 -19.4499C-4.81876 -19.4624 -4.29064 -19.3211 -3.69653 -19.0258C-3.07915 -18.5481 -2.721 -17.9214 -2.6221 -17.1456C-2.52901 -16.4155 -2.68643 -15.468 -3.09437 -14.3031C-3.36633 -13.5264 -3.6121 -12.5445 -3.8317 -11.3572C-4.00566 -10.1757 -4.13109 -8.97719 -4.20797 -7.7617C-4.24504 -6.59766 -4.21704 -5.6506 -4.12395 -4.92051C-4.00759 -4.0079 -3.82369 -3.47488 -3.57227 -3.32144C-3.28103 -3.21946 -2.95289 -3.19174 -2.58785 -3.23828C-2.04028 -3.3081 -1.40482 -3.5978 -0.681459 -4.10738C0.0419002 -4.61696 0.818703 -5.43478 1.64895 -6.56083C2.00726 -7.02387 2.43356 -7.68106 2.92786 -8.53242C3.41633 -9.4294 3.87908 -10.3463 4.3161 -11.2831C4.79294 -12.2713 5.17025 -13.131 5.44802 -13.862C5.77143 -14.5988 5.92149 -15.0585 5.89822 -15.241C5.86331 -15.5148 6.0192 -15.9288 6.36588 -16.4831C6.59312 -16.8831 6.76355 -17.183 6.87717 -17.383C7.0306 -17.6344 7.32092 -17.9033 7.74814 -18.1896C8.08991 -18.4187 8.40642 -18.4822 8.69765 -18.3803C8.98307 -18.3239 9.30876 -18.1336 9.67472 -17.8092C9.92615 -17.6558 10.0751 -17.3966 10.1217 -17.0315C10.2138 -16.6723 10.2948 -16.2189 10.3647 -15.6713C10.2918 -15.152 10.148 -14.4612 9.93328 -13.5991C9.75841 -12.7885 9.53499 -11.9949 9.26303 -11.2182C9.03089 -10.4931 8.81819 -9.97903 8.62495 -9.67616C8.4657 -9.47037 8.18992 -9.08741 7.79761 -8.52729C7.39948 -8.01281 7.05281 -7.45851 6.75758 -6.8644C5.79135 -5.35003 5.08346 -4.35551 4.63388 -3.88084C4.18431 -3.40616 3.80027 -2.96303 3.48177 -2.55144C2.6457 -1.47102 1.73492 -0.612937 0.749413 0.0228135C-0.241911 0.612934 -1.21669 0.969083 -2.17494 1.09126C-3.08755 1.20762 -3.89236 1.07837 -4.58937 0.70352C-6.097 0.153788 -6.96136 -0.988059 -7.18245 -2.72202C-7.22899 -3.08707 -7.33816 -3.39775 -7.50996 -3.65408C-7.64195 -3.96186 -7.70794 -4.11575 -7.70794 -4.11575C-7.89047 -4.09248 -8.13562 -4.01485 -8.44339 -3.88286C-8.70554 -3.75669 -8.96142 -3.39946 -9.21101 -2.81117C-9.52278 -1.98309 -10.0826 -1.10019 -10.8905 -0.162478C-11.6586 0.723783 -12.464 1.49888 -13.3068 2.16281C-14.1554 2.7811 -14.8535 3.12516 -15.4011 3.19497ZM15.2455 -0.086505C15.0164 -0.428278 14.7534 -0.672971 14.4563 -0.820585C14.1534 -1.01383 13.9904 -1.20171 13.9671 -1.38424C13.9438 -1.56676 13.8977 -1.74637 13.8288 -1.92308C13.7998 -2.15123 13.6823 -2.34493 13.4765 -2.50418C13.2135 -2.74888 13.1577 -3.3678 13.3093 -4.36095C13.4551 -5.39973 13.7572 -6.66712 14.2157 -8.16312C14.6684 -9.70475 15.2264 -11.3294 15.8897 -13.037C16.2082 -13.4486 16.5122 -13.9742 16.8016 -14.614C17.091 -15.2537 17.3153 -15.6765 17.4746 -15.8823C17.4513 -16.0648 17.4994 -16.2332 17.6188 -16.3876C17.7325 -16.5876 17.8805 -16.6992 18.063 -16.7225L18.0107 -17.1331C17.9816 -17.3613 18.1375 -17.7753 18.4783 -18.3753C18.8648 -18.981 19.3368 -19.644 19.8941 -20.3643C20.4457 -21.1302 21.0259 -21.8534 21.6347 -22.5339C22.2377 -23.26 22.7499 -23.789 23.1713 -24.121C24.0481 -24.882 24.9797 -25.3949 25.9661 -25.6598C26.9982 -25.9305 27.9171 -25.8158 28.7228 -25.3157C28.8771 -25.1963 29.1344 -24.9972 29.4945 -24.7185C29.8547 -24.4398 30.2663 -24.1213 30.7293 -23.763C31.2321 -23.4561 31.7379 -23.1265 32.2466 -22.774L35.0671 -20.8381L34.2714 -17.2588C33.9109 -15.3579 33.9548 -13.7405 34.4031 -12.4065C34.8971 -11.0783 35.5047 -9.95006 36.2259 -9.02182C36.518 -8.54897 37.0354 -8.12803 37.7781 -7.759C38.5663 -7.39578 39.2857 -7.20927 39.9362 -7.19946C40.307 -7.20037 40.6667 -7.10711 41.0152 -6.91969C41.3637 -6.73226 41.57 -6.38758 41.634 -5.88564C41.6921 -5.42934 41.6474 -5.05265 41.4998 -4.7556C41.3522 -4.45854 41.0561 -4.2353 40.6114 -4.08585C39.1288 -3.71134 37.6678 -3.89602 36.2281 -4.63991C34.8341 -5.38962 33.4557 -6.74416 32.0929 -8.70354C31.8755 -8.95405 31.5605 -9.42399 31.148 -10.1134C30.7753 -10.8542 30.5516 -11.3357 30.4769 -11.5581C30.3235 -11.3066 30.0365 -10.8295 29.616 -10.1267C29.1897 -9.4695 28.8572 -8.98656 28.6183 -8.67786C25.7974 -4.97938 23.2733 -2.40849 21.046 -0.965192C18.8584 0.426661 16.9249 0.719556 15.2455 -0.086505ZM17.2208 -4.23365C17.2616 -3.91423 17.7407 -3.97532 18.6582 -4.41691C19.6155 -4.90995 20.6064 -5.68551 21.6308 -6.74357C23.0135 -8.26467 24.3788 -9.92266 25.7266 -11.7175C27.12 -13.5182 28.2086 -15.1641 28.9923 -16.6552L30.184 -19.3113C29.5938 -20.3026 29.0017 -20.9459 28.4076 -21.2411C27.8533 -21.5878 27.3936 -21.7379 27.0286 -21.6913C26.4354 -21.6157 25.6154 -20.9547 24.5687 -19.7083C23.5675 -18.4677 22.5217 -16.8504 21.4311 -14.8565C20.3405 -12.8625 19.3417 -10.6948 18.4346 -8.35324C18.0946 -7.38245 17.7974 -6.44029 17.5429 -5.52676C17.3282 -4.66469 17.2208 -4.23365 17.2208 -4.23365ZM45.9669 15.2642C44.9863 15.5747 44.3047 15.6848 43.9222 15.5944C43.5397 15.5041 43.0087 15.3399 42.3291 15.102C41.7807 14.8009 41.3579 14.5766 41.0608 14.429C40.7638 14.2814 40.6036 14.1163 40.5803 13.9338C40.5629 13.7969 40.5882 13.6314 40.6561 13.4372C40.7299 13.2887 40.8722 13.1314 41.0829 12.9654C41.345 12.8393 41.7043 12.7471 42.1606 12.6889C42.5033 12.8307 43.0397 12.8551 43.7697 12.762C44.5455 12.6631 45.013 12.5107 45.1722 12.3049C45.1722 12.3049 45.3601 12.1419 45.7359 11.8157C46.1631 11.5294 46.733 11.2712 47.4456 11.0412C48.7729 10.1764 49.9172 9.14945 50.8785 7.96031C51.8398 6.77118 52.7148 5.26845 53.5034 3.45212C53.8326 2.76093 54.1701 1.95275 54.5159 1.02759C54.8675 0.14806 55.0822 -0.714016 55.16 -1.55864C55.4087 -2.51779 55.6622 -3.80218 55.9207 -5.4118C56.2249 -7.02724 56.4635 -8.61114 56.6365 -10.1635C56.8037 -11.7615 56.8607 -12.9512 56.8074 -13.7328C56.7554 -16.323 56.8893 -18.7282 57.209 -20.9485C57.5686 -23.2202 57.8049 -25.7313 57.9179 -28.4817C58.1103 -29.1554 58.2691 -29.5466 58.3943 -29.6554C58.5138 -29.8097 58.8016 -29.916 59.2579 -29.9741C59.7599 -30.0381 60.1307 -30.0391 60.3705 -29.9769C60.6501 -29.9662 60.9816 -29.7302 61.365 -29.269C61.9319 -28.4602 62.2225 -27.4539 62.2369 -26.25C62.2911 -25.0976 62.0768 -24.0501 61.5942 -23.1075C61.2193 -22.4105 60.9366 -21.3542 60.7461 -19.9388C60.5955 -18.5748 60.4884 -16.8685 60.425 -14.82C60.3248 -13.7871 60.2251 -12.5687 60.1259 -11.1649C60.0664 -9.81249 60.0046 -8.29749 59.9402 -6.61988C59.8159 -6.1403 59.6551 -5.40103 59.4579 -4.40206C59.2548 -3.44872 59.1425 -2.69245 59.1211 -2.13325C59.0987 -1.94491 59.0084 -1.56241 58.8501 -0.985755C58.6917 -0.409097 58.5305 0.144744 58.3663 0.675771C58.208 1.25243 58.0948 1.63784 58.0268 1.83199C56.7185 5.75497 55.0487 8.84297 53.0173 11.096C50.9859 13.349 48.6358 14.7384 45.9669 15.2642ZM48.6379 -5.24837C48.136 -5.18437 47.5763 -5.39125 46.9589 -5.869C46.3872 -6.35257 45.9897 -6.74243 45.7664 -7.03857C45.5257 -7.4716 45.2423 -7.876 44.9162 -8.25177C44.59 -8.62754 44.3207 -9.10329 44.1082 -9.67904C43.9413 -10.2606 43.8938 -10.9965 43.9658 -11.8868C44.0727 -12.5032 44.216 -13.3794 44.3958 -14.5153C44.6154 -15.7026 44.8462 -16.984 45.0881 -18.3597C45.3757 -19.7412 45.6662 -21.0998 45.9596 -22.4356C46.2928 -23.8229 46.6008 -25.0447 46.8834 -26.1009C47.1603 -27.2028 47.4293 -28.0022 47.6906 -28.4993C47.9178 -28.8992 48.1853 -29.1652 48.4931 -29.2972C48.8465 -29.435 49.2174 -29.4359 49.6057 -29.2999C49.9882 -29.2096 50.3454 -28.9537 50.6774 -28.5323C51.2608 -27.9575 51.5359 -27.4361 51.5029 -26.9681C51.4698 -26.5002 51.1725 -25.558 50.6112 -24.1417C50.4927 -23.6165 50.3343 -23.0398 50.1362 -22.4117C49.9322 -21.8292 49.8419 -21.4467 49.8651 -21.2642C49.8311 -21.1671 49.7806 -20.8361 49.7135 -20.2711C49.6863 -19.7575 49.6333 -19.2638 49.5546 -18.7901C49.4758 -18.3163 49.368 -18.0707 49.2311 -18.0532C49.0719 -17.8474 48.9335 -17.2965 48.8159 -16.4004C48.6924 -15.55 48.6064 -14.5884 48.5577 -13.5156C48.5031 -12.4885 48.5025 -11.5841 48.5558 -10.8026C48.6032 -10.0667 48.7182 -9.71036 48.9007 -9.73363C50.3153 -9.91399 51.7057 -10.6477 53.0718 -11.9349C54.4836 -13.2278 55.8315 -15.0227 57.1153 -17.3195L58.8985 -12.6082C58.3004 -12.2073 57.7508 -11.7895 57.2498 -11.3546C56.7429 -10.9654 56.2904 -10.5135 55.8923 -9.99905C55.7787 -9.79907 55.4913 -9.50738 55.0301 -9.12397C54.5689 -8.74055 54.1047 -8.37996 53.6377 -8.04217C53.2105 -7.75584 52.9284 -7.60395 52.7916 -7.58649C52.7916 -7.58649 52.726 -7.55495 52.5949 -7.49187C52.5037 -7.48023 52.4697 -7.38315 52.493 -7.20063C52.5046 -7.10937 52.2313 -6.88903 51.673 -6.53961C51.1089 -6.23582 50.519 -5.95194 49.9035 -5.68797C49.2879 -5.424 48.8661 -5.27746 48.6379 -5.24837ZM74.4614 -6.10637C72.1799 -5.81547 70.4096 -6.42446 69.1507 -7.93335C68.7731 -8.34893 68.5552 -8.78487 68.497 -9.24118C68.4786 -9.74893 68.5719 -10.1086 68.7768 -10.3202C69.0273 -10.5377 69.3671 -10.4187 69.7961 -9.96329C70.4815 -9.67969 71.4174 -9.61353 72.6038 -9.7648C73.197 -9.84043 73.8071 -9.96461 74.4343 -10.1373C75.0557 -10.3557 75.6713 -10.6196 76.281 -10.9292C76.9247 -11.3359 77.3461 -11.6679 77.5452 -11.9251C77.7384 -12.228 77.6637 -12.4503 77.321 -12.5921L77.3895 -12.6009C76.1624 -12.769 74.8892 -13.1168 73.5699 -13.6441C72.2904 -14.223 71.1648 -14.8678 70.1931 -15.5786C69.2156 -16.335 68.6147 -17.0468 68.3905 -17.7138C67.8451 -19.0818 67.7531 -20.5308 68.1145 -22.0608C68.4701 -23.6364 69.0771 -25.0586 69.9355 -26.3273C70.2715 -26.602 70.6929 -26.934 71.1997 -27.3232C71.7007 -27.7581 72.1081 -28.0187 72.4216 -28.1051L72.4304 -28.0366C73.181 -29.0598 74.1374 -29.9237 75.2996 -30.6283C76.5075 -31.3388 77.7896 -32.0124 79.1459 -32.649L80.1552 -32.9168C80.6911 -33.0779 81.1416 -33.1817 81.5066 -33.2282C81.461 -33.2224 81.5581 -33.1884 81.7979 -33.1263C82.0318 -33.1097 82.243 -33.0903 82.4313 -33.0679C82.7226 -32.9659 82.9595 -32.9266 83.142 -32.9498C83.7468 -32.9342 84.3293 -32.7303 84.8894 -32.3379C85.4495 -31.9456 85.9072 -31.4475 86.2624 -30.8436C86.6575 -30.2911 86.8443 -29.7353 86.8228 -29.1761C86.8421 -28.2975 86.6672 -27.4868 86.2982 -26.7442C85.9748 -26.0074 85.5223 -25.5555 84.9408 -25.3886C85.0262 -25.4459 84.949 -25.5056 84.7092 -25.5678C84.5093 -25.6814 84.2865 -25.7921 84.0409 -25.8999L83.853 -25.7368C83.853 -25.7368 83.8243 -25.7796 83.7671 -25.865C83.7496 -26.0019 83.6836 -26.1558 83.5691 -26.3267C83.3973 -26.583 83.291 -26.8709 83.2503 -27.1903C83.2038 -27.5553 83.1771 -27.9461 83.1704 -28.3626C83.1977 -28.8762 83.1598 -29.1728 83.0569 -29.2524C82.9997 -29.3378 82.6944 -29.3685 82.141 -29.3443C81.4847 -29.3997 80.5638 -29.1664 79.3783 -28.6443C78.2385 -28.1279 77.2986 -27.498 76.5587 -26.7545C75.6363 -25.9876 74.8706 -25.264 74.2618 -24.5835C73.6472 -23.9487 73.1694 -23.3313 72.8286 -22.7314C72.4819 -22.1771 72.1925 -21.5373 71.9603 -20.8121C71.7729 -20.4636 71.6083 -20.118 71.4665 -19.7754C71.3645 -19.4841 71.3281 -19.2244 71.3572 -18.9963C71.4212 -18.4943 71.8531 -18.0161 72.653 -17.5616C73.4927 -17.1586 74.7091 -16.7109 76.3022 -16.2184C77.5526 -15.8677 78.6263 -15.4482 79.5233 -14.9597C80.4203 -14.4712 81.0779 -13.8595 81.4962 -13.1245C81.6108 -12.9536 81.6627 -12.7284 81.652 -12.4488C81.681 -12.2206 81.6558 -12.0551 81.5762 -11.9522C81.6791 -11.8726 81.7334 -11.8099 81.7392 -11.7643L81.7305 -11.8327C82.1654 -11.3317 82.2381 -10.7613 81.9487 -10.1216C81.7049 -9.48767 81.2014 -8.89019 80.4382 -8.32916C79.7149 -7.81958 78.7974 -7.37799 77.6857 -7.00439L77.7541 -7.01311C77.1842 -6.75496 76.6085 -6.54243 76.0269 -6.37554C75.4852 -6.26009 74.9633 -6.17037 74.4614 -6.10637Z" fill="#414141"/>
</g>
</g>
</g>
<defs>
<clipPath id="clip0_0_1">
<rect width="1600" height="6142" fill="white" transform="translate(-1124 -3022)"/>
</clipPath>
</defs>
</svg>
