<?xml version="1.0" encoding="UTF-8"?>
<!DOCTYPE svg PUBLIC "-//W3C//DTD SVG 1.1//EN" "http://www.w3.org/Graphics/SVG/1.1/DTD/svg11.dtd">
<svg xmlns="http://www.w3.org/2000/svg" version="1.1" width="748px" height="512px" style="shape-rendering:geometricPrecision; text-rendering:geometricPrecision; image-rendering:optimizeQuality; fill-rule:evenodd; clip-rule:evenodd" xmlns:xlink="http://www.w3.org/1999/xlink">
<g><path style="opacity:1" fill="#f4e051" d="M -0.5,-0.5 C 248.833,-0.5 498.167,-0.5 747.5,-0.5C 747.5,170.167 747.5,340.833 747.5,511.5C 498.167,511.5 248.833,511.5 -0.5,511.5C -0.5,340.833 -0.5,170.167 -0.5,-0.5 Z"/></g>
<g><path style="opacity:1" fill="#020200" d="M 25.5,123.5 C 25.5,116.5 25.5,109.5 25.5,102.5C 34.8333,102.5 44.1667,102.5 53.5,102.5C 53.175,110.019 53.5084,117.352 54.5,124.5C 55.8568,131.68 59.6902,133.346 66,129.5C 69.2408,118.925 67.5741,109.258 61,100.5C 52.3333,91.8333 43.6667,83.1667 35,74.5C 26.1532,62.9457 23.1532,49.9457 26,35.5C 28.1662,22.3317 35.6662,13.8317 48.5,10C 81.1308,5.46579 96.7975,19.6325 95.5,52.5C 85.8333,52.5 76.1667,52.5 66.5,52.5C 66.6655,48.4862 66.4988,44.4862 66,40.5C 65.5348,39.0692 64.7014,37.9025 63.5,37C 60.0074,35.9963 56.8408,36.4963 54,38.5C 53.2327,42.5935 53.566,46.5935 55,50.5C 65.3033,61.8041 75.97,72.8041 87,83.5C 90.445,88.0552 93.1117,93.0552 95,98.5C 98.3143,114.749 96.6476,130.416 90,145.5C 82.8927,155.215 73.226,159.548 61,158.5C 38.1218,158.122 26.2885,146.456 25.5,123.5 Z"/></g>
<g><path style="opacity:1" fill="#010100" d="M 401.5,94.5 C 411.167,94.5 420.833,94.5 430.5,94.5C 430.5,104.5 430.5,114.5 430.5,124.5C 429.5,146.332 418,157.666 396,158.5C 377.649,159.129 365.649,150.795 360,133.5C 358.897,116.863 358.397,100.196 358.5,83.5C 358.667,69.5 358.833,55.5 359,41.5C 362.937,16.4457 377.437,5.94575 402.5,10C 416.995,12.16 426.161,20.3267 430,34.5C 430.5,45.8284 430.667,57.1618 430.5,68.5C 420.833,68.5 411.167,68.5 401.5,68.5C 401.666,59.1607 401.5,49.8274 401,40.5C 400.535,39.0692 399.701,37.9025 398.5,37C 393.367,35.2059 389.867,36.7059 388,41.5C 387.333,69.5 387.333,97.5 388,125.5C 389.211,130.71 392.377,132.544 397.5,131C 399.487,129.681 400.654,127.848 401,125.5C 401.5,115.172 401.666,104.839 401.5,94.5 Z"/></g>
<g><path style="opacity:1" fill="#000000" d="M 141.5,10.5 C 157.876,10.0939 174.21,10.5939 190.5,12C 199.974,14.8071 206.14,20.9737 209,30.5C 212.595,47.9197 212.261,65.253 208,82.5C 205.807,90.0264 200.974,94.8597 193.5,97C 185.571,98.3633 177.571,98.8633 169.5,98.5C 169.5,117.833 169.5,137.167 169.5,156.5C 160.167,156.5 150.833,156.5 141.5,156.5C 141.5,107.833 141.5,59.1667 141.5,10.5 Z"/></g>
<g><path style="opacity:1" fill="#000000" d="M 285.5,66.5 C 294.318,67.4933 303.318,67.8266 312.5,67.5C 312.5,76.5 312.5,85.5 312.5,94.5C 303.5,94.5 294.5,94.5 285.5,94.5C 285.5,105.833 285.5,117.167 285.5,128.5C 295.5,128.5 305.5,128.5 315.5,128.5C 315.5,137.833 315.5,147.167 315.5,156.5C 295.5,156.5 275.5,156.5 255.5,156.5C 255.5,107.833 255.5,59.1667 255.5,10.5C 274.833,10.5 294.167,10.5 313.5,10.5C 313.5,19.8333 313.5,29.1667 313.5,38.5C 304.167,38.5 294.833,38.5 285.5,38.5C 285.5,47.8333 285.5,57.1667 285.5,66.5 Z"/></g>
<g><path style="opacity:1" fill="#000000" d="M 501.5,10.5 C 501.5,59.1667 501.5,107.833 501.5,156.5C 492.167,156.5 482.833,156.5 473.5,156.5C 473.5,107.833 473.5,59.1667 473.5,10.5C 482.833,10.5 492.167,10.5 501.5,10.5 Z"/></g>
<g><path style="opacity:1" fill="#b0a13b" d="M 501.5,10.5 C 502.499,59.3305 502.832,108.33 502.5,157.5C 492.652,157.827 482.986,157.494 473.5,156.5C 482.833,156.5 492.167,156.5 501.5,156.5C 501.5,107.833 501.5,59.1667 501.5,10.5 Z"/></g>
<g><path style="opacity:1" fill="#020200" d="M 572.5,154.5 C 563.43,156.431 554.097,157.097 544.5,156.5C 544.5,154.833 544.5,153.167 544.5,151.5C 549.19,104.527 553.523,57.5269 557.5,10.5C 574.167,10.5 590.833,10.5 607.5,10.5C 612.079,58.8656 616.746,107.199 621.5,155.5C 612.19,156.498 602.857,156.832 593.5,156.5C 593.221,149.156 592.721,141.823 592,134.5C 585.924,133.524 579.758,133.19 573.5,133.5C 572.835,140.48 572.502,147.48 572.5,154.5 Z"/></g>
<g><path style="opacity:1" fill="#000000" d="M 693.5,10.5 C 693.5,51.1667 693.5,91.8333 693.5,132.5C 703.5,132.5 713.5,132.5 723.5,132.5C 723.5,140.5 723.5,148.5 723.5,156.5C 703.833,156.5 684.167,156.5 664.5,156.5C 664.5,107.833 664.5,59.1667 664.5,10.5C 674.167,10.5 683.833,10.5 693.5,10.5 Z"/></g>
<g><path style="opacity:1" fill="#998c33" d="M 693.5,10.5 C 694.499,50.6632 694.832,90.9966 694.5,131.5C 704.681,131.173 714.681,131.506 724.5,132.5C 724.167,132.5 723.833,132.5 723.5,132.5C 713.5,132.5 703.5,132.5 693.5,132.5C 693.5,91.8333 693.5,51.1667 693.5,10.5 Z"/></g>
<g><path style="opacity:1" fill="#e7d44d" d="M 581.5,35.5 C 583.237,38.008 584.07,41.008 584,44.5C 585.889,66.1681 587.722,87.8347 589.5,109.5C 585.167,109.5 580.833,109.5 576.5,109.5C 577.586,84.7883 579.253,60.1217 581.5,35.5 Z"/></g>
<g><path style="opacity:1" fill="#edda4f" d="M 169.5,36.5 C 180.635,36.8721 185.302,42.7055 183.5,54C 183.473,58.9951 182.64,63.8284 181,68.5C 177.96,71.9663 174.126,73.2996 169.5,72.5C 169.5,60.5 169.5,48.5 169.5,36.5 Z"/></g>
<g><path style="opacity:1" fill="#a49636" d="M 285.5,66.5 C 294.833,66.5 304.167,66.5 313.5,66.5C 313.827,76.015 313.494,85.3483 312.5,94.5C 312.5,85.5 312.5,76.5 312.5,67.5C 303.318,67.8266 294.318,67.4933 285.5,66.5 Z"/></g>
<g><path style="opacity:1" fill="#716826" d="M 401.5,94.5 C 411.319,93.506 421.319,93.1726 431.5,93.5C 431.828,104.014 431.494,114.347 430.5,124.5C 430.5,114.5 430.5,104.5 430.5,94.5C 420.833,94.5 411.167,94.5 401.5,94.5 Z"/></g>
<g><path style="opacity:1" fill="#a59737" d="M 54.5,124.5 C 53.5084,117.352 53.175,110.019 53.5,102.5C 44.1667,102.5 34.8333,102.5 25.5,102.5C 25.5,109.5 25.5,116.5 25.5,123.5C 24.5084,116.352 24.175,109.019 24.5,101.5C 34.5,101.5 44.5,101.5 54.5,101.5C 54.5,109.167 54.5,116.833 54.5,124.5 Z"/></g>
<g><path style="opacity:1" fill="#5e571f" d="M 141.5,10.5 C 141.5,59.1667 141.5,107.833 141.5,156.5C 150.833,156.5 160.167,156.5 169.5,156.5C 160.014,157.494 150.348,157.827 140.5,157.5C 140.168,108.33 140.501,59.3305 141.5,10.5 Z"/></g>
<g><path style="opacity:1" fill="#756b27" d="M 544.5,151.5 C 544.5,153.167 544.5,154.833 544.5,156.5C 554.097,157.097 563.43,156.431 572.5,154.5C 572.5,155.5 572.5,156.5 572.5,157.5C 562.833,157.5 553.167,157.5 543.5,157.5C 543.205,155.265 543.539,153.265 544.5,151.5 Z"/></g>
<g><path style="opacity:1" fill="#746b26" d="M 723.5,132.5 C 723.833,132.5 724.167,132.5 724.5,132.5C 724.5,140.833 724.5,149.167 724.5,157.5C 704.326,157.83 684.326,157.497 664.5,156.5C 684.167,156.5 703.833,156.5 723.5,156.5C 723.5,148.5 723.5,140.5 723.5,132.5 Z"/></g>
<g><path style="opacity:1" fill="#010100" d="M 71.5,202.5 C 88.6898,200.917 105.356,203.084 121.5,209C 143.753,220.638 155.586,239.138 157,264.5C 157.667,321.833 157.667,379.167 157,436.5C 154.92,455.824 147.086,472.324 133.5,486C 123.482,493.786 112.149,498.452 99.5,500C 49.4675,505.93 20.9675,484.097 14,434.5C 13.3333,378.167 13.3333,321.833 14,265.5C 17.0509,229.622 36.2176,208.622 71.5,202.5 Z"/></g>
<g><path style="opacity:1" fill="#1f1d0b" d="M 182.5,205.5 C 182.5,302.833 182.5,400.167 182.5,497.5C 201.833,497.5 221.167,497.5 240.5,497.5C 221.007,498.497 201.34,498.83 181.5,498.5C 181.167,400.665 181.501,302.999 182.5,205.5 Z"/></g>
<g><path style="opacity:1" fill="#000000" d="M 182.5,205.5 C 221.167,205.5 259.833,205.5 298.5,205.5C 298.5,224.167 298.5,242.833 298.5,261.5C 278.993,261.17 259.659,261.503 240.5,262.5C 240.5,277.833 240.5,293.167 240.5,308.5C 258.659,309.497 276.992,309.83 295.5,309.5C 295.5,327.833 295.5,346.167 295.5,364.5C 276.992,364.17 258.659,364.503 240.5,365.5C 240.5,409.5 240.5,453.5 240.5,497.5C 221.167,497.5 201.833,497.5 182.5,497.5C 182.5,400.167 182.5,302.833 182.5,205.5 Z"/></g>
<g><path style="opacity:1" fill="#000000" d="M 318.5,205.5 C 357.5,205.5 396.5,205.5 435.5,205.5C 435.5,224.167 435.5,242.833 435.5,261.5C 415.833,261.5 396.167,261.5 376.5,261.5C 376.5,277.5 376.5,293.5 376.5,309.5C 394.833,309.5 413.167,309.5 431.5,309.5C 431.5,327.833 431.5,346.167 431.5,364.5C 413.326,364.17 395.326,364.503 377.5,365.5C 376.501,409.33 376.168,453.33 376.5,497.5C 357.167,497.5 337.833,497.5 318.5,497.5C 318.5,400.167 318.5,302.833 318.5,205.5 Z"/></g>
<g><path style="opacity:1" fill="#000000" d="M 571.5,205.5 C 571.5,224.167 571.5,242.833 571.5,261.5C 552.5,261.5 533.5,261.5 514.5,261.5C 513.503,280.659 513.17,299.993 513.5,319.5C 532.167,319.5 550.833,319.5 569.5,319.5C 569.5,337.5 569.5,355.5 569.5,373.5C 550.833,373.5 532.167,373.5 513.5,373.5C 513.169,396.339 513.503,419.006 514.5,441.5C 534.833,441.5 555.167,441.5 575.5,441.5C 575.5,460.5 575.5,479.5 575.5,498.5C 535.167,498.5 494.833,498.5 454.5,498.5C 454.5,400.833 454.5,303.167 454.5,205.5C 493.5,205.5 532.5,205.5 571.5,205.5 Z"/></g>
<g><path style="opacity:1" fill="#000000" d="M 595.5,205.5 C 628.835,205.333 662.168,205.5 695.5,206C 715.853,209.016 728.686,220.516 734,240.5C 738.649,262.994 739.649,285.661 737,308.5C 735.09,325.864 726.256,338.031 710.5,345C 724.695,350.208 732.529,360.375 734,375.5C 734.5,392.83 734.667,410.163 734.5,427.5C 733.502,450.661 733.169,473.994 733.5,497.5C 714.5,497.5 695.5,497.5 676.5,497.5C 676.667,456.832 676.5,416.165 676,375.5C 674.387,369.553 670.553,366.053 664.5,365C 661.183,364.502 657.85,364.335 654.5,364.5C 653.501,408.664 653.168,452.997 653.5,497.5C 634.167,497.5 614.833,497.5 595.5,497.5C 595.5,400.167 595.5,302.833 595.5,205.5 Z"/></g>
<g><path style="opacity:1" fill="#f5e151" d="M 80.5,256.5 C 89.4138,254.728 95.2471,258.061 98,266.5C 98.6667,322.5 98.6667,378.5 98,434.5C 94.6767,447.494 87.3434,450.494 76,443.5C 74.0651,440.448 72.7318,437.115 72,433.5C 71.3333,378.5 71.3333,323.5 72,268.5C 73.1471,263.204 75.9804,259.204 80.5,256.5 Z"/></g>
<g><path style="opacity:1" fill="#f2de50" d="M 654.5,259.5 C 675.347,254.849 684.014,263.015 680.5,284C 681.421,293.291 679.921,302.124 676,310.5C 675.097,311.701 673.931,312.535 672.5,313C 666.509,313.499 660.509,313.666 654.5,313.5C 654.5,295.5 654.5,277.5 654.5,259.5 Z"/></g>
<g><path style="opacity:1" fill="#665e22" d="M 298.5,205.5 C 299.497,224.326 299.83,243.326 299.5,262.5C 279.833,262.5 260.167,262.5 240.5,262.5C 259.659,261.503 278.993,261.17 298.5,261.5C 298.5,242.833 298.5,224.167 298.5,205.5 Z"/></g>
<g><path style="opacity:1" fill="#a49637" d="M 571.5,205.5 C 572.497,224.326 572.83,243.326 572.5,262.5C 553.167,262.5 533.833,262.5 514.5,262.5C 514.5,262.167 514.5,261.833 514.5,261.5C 533.5,261.5 552.5,261.5 571.5,261.5C 571.5,242.833 571.5,224.167 571.5,205.5 Z"/></g>
<g><path style="opacity:1" fill="#6f6625" d="M 514.5,261.5 C 514.5,261.833 514.5,262.167 514.5,262.5C 514.5,281.167 514.5,299.833 514.5,318.5C 533.008,318.17 551.341,318.503 569.5,319.5C 550.833,319.5 532.167,319.5 513.5,319.5C 513.17,299.993 513.503,280.659 514.5,261.5 Z"/></g>
<g><path style="opacity:1" fill="#625b21" d="M 435.5,261.5 C 416.341,262.497 397.007,262.83 377.5,262.5C 377.5,277.833 377.5,293.167 377.5,308.5C 396.008,308.17 414.341,308.503 432.5,309.5C 432.167,309.5 431.833,309.5 431.5,309.5C 413.167,309.5 394.833,309.5 376.5,309.5C 376.5,293.5 376.5,277.5 376.5,261.5C 396.167,261.5 415.833,261.5 435.5,261.5 Z"/></g>
<g><path style="opacity:1" fill="#645c21" d="M 240.5,308.5 C 259.167,308.5 277.833,308.5 296.5,308.5C 296.5,327.5 296.5,346.5 296.5,365.5C 277.833,365.5 259.167,365.5 240.5,365.5C 258.659,364.503 276.992,364.17 295.5,364.5C 295.5,346.167 295.5,327.833 295.5,309.5C 276.992,309.83 258.659,309.497 240.5,308.5 Z"/></g>
<g><path style="opacity:1" fill="#3e3915" d="M 431.5,309.5 C 431.833,309.5 432.167,309.5 432.5,309.5C 432.5,328.167 432.5,346.833 432.5,365.5C 414.167,365.5 395.833,365.5 377.5,365.5C 395.326,364.503 413.326,364.17 431.5,364.5C 431.5,346.167 431.5,327.833 431.5,309.5 Z"/></g>
<g><path style="opacity:1" fill="#3f3a17" d="M 595.5,205.5 C 595.5,302.833 595.5,400.167 595.5,497.5C 614.833,497.5 634.167,497.5 653.5,497.5C 653.168,452.997 653.501,408.664 654.5,364.5C 654.5,409.167 654.5,453.833 654.5,498.5C 634.5,498.5 614.5,498.5 594.5,498.5C 594.167,400.665 594.501,302.999 595.5,205.5 Z"/></g>
<g><path style="opacity:1" fill="#706725" d="M 569.5,373.5 C 551.341,374.497 533.008,374.83 514.5,374.5C 514.5,396.833 514.5,419.167 514.5,441.5C 513.503,419.006 513.169,396.339 513.5,373.5C 532.167,373.5 550.833,373.5 569.5,373.5 Z"/></g>
<g><path style="opacity:1" fill="#514b1d" d="M 318.5,205.5 C 318.5,302.833 318.5,400.167 318.5,497.5C 337.833,497.5 357.167,497.5 376.5,497.5C 376.168,453.33 376.501,409.33 377.5,365.5C 377.5,409.833 377.5,454.167 377.5,498.5C 357.5,498.5 337.5,498.5 317.5,498.5C 317.167,400.665 317.501,302.999 318.5,205.5 Z"/></g>
<g><path style="opacity:1" fill="#393515" d="M 734.5,427.5 C 734.5,451.167 734.5,474.833 734.5,498.5C 714.993,498.83 695.659,498.497 676.5,497.5C 695.5,497.5 714.5,497.5 733.5,497.5C 733.169,473.994 733.502,450.661 734.5,427.5 Z"/></g>
</svg>
